<?xml version="1.0"?>
<svg width="144.083" height="144" xmlns="http://www.w3.org/2000/svg" xmlns:svg="http://www.w3.org/2000/svg">
 <g class="layer">
  <title>Layer 1</title>
  <path d="m72.041,14.165c-31.94,0 -57.833,25.894 -57.833,57.834c0,31.939 25.893,57.836 57.833,57.836s57.835,-25.896 57.835,-57.836c-0.001,-31.94 -25.895,-57.834 -57.835,-57.834zm19.751,36.995c0,0.552 -0.447,1 -1,1l-14.079,0l0,7.567l14.078,0c0.553,0 1,0.448 1,1l0,14.077c0,0.553 -0.447,1 -1,1l-13.078,0l0,30.892c0,0.553 -0.447,1 -1,1l-13.305,0c-0.553,0 -1,-0.447 -1,-1l0,-30.891l-9.117,0c-0.553,0 -1,-0.447 -1,-1l0,-14.077c0,-0.552 0.447,-1 1,-1l9.117,0l0,-5.708c0,-0.082 0.01,-0.161 0.028,-0.237c0.008,-8.131 1.747,-17.433 15.068,-17.475c0.029,-0.002 0.06,-0.004 0.09,-0.004l13.197,0c0.553,0 1,0.448 1,1l0,13.856l0.001,0z" fill="#000000" fill-opacity="0" id="svg_1"/>
 </g>
</svg>